<mxfile host="app.diagrams.net" modified="2024-02-02T21:06:43.704Z" agent="Mozilla/5.0 (Windows NT 10.0; Win64; x64; rv:122.0) Gecko/20100101 Firefox/122.0" etag="T1GOqi26wL47amTqvv5v" version="22.1.21" type="device">
  <diagram name="Page-1" id="v1xIaQzYtgh9UTda_vcV">
    <mxGraphModel dx="3112" dy="995" grid="1" gridSize="10" guides="1" tooltips="1" connect="1" arrows="1" fold="1" page="1" pageScale="1" pageWidth="1200" pageHeight="1920" background="#ffffff" math="0" shadow="0">
      <root>
        <mxCell id="0" />
        <mxCell id="1" parent="0" />
        <mxCell id="GDep3V4h5ndJyahkYe-O-10" style="edgeStyle=orthogonalEdgeStyle;rounded=0;orthogonalLoop=1;jettySize=auto;html=1;entryX=0.5;entryY=0;entryDx=0;entryDy=0;exitX=0.5;exitY=1;exitDx=0;exitDy=0;" edge="1" parent="1" source="GDep3V4h5ndJyahkYe-O-1" target="GDep3V4h5ndJyahkYe-O-7">
          <mxGeometry relative="1" as="geometry" />
        </mxCell>
        <mxCell id="GDep3V4h5ndJyahkYe-O-12" style="edgeStyle=orthogonalEdgeStyle;rounded=0;orthogonalLoop=1;jettySize=auto;html=1;entryX=0.5;entryY=0;entryDx=0;entryDy=0;exitX=0.5;exitY=1;exitDx=0;exitDy=0;" edge="1" parent="1" source="GDep3V4h5ndJyahkYe-O-1" target="GDep3V4h5ndJyahkYe-O-11">
          <mxGeometry relative="1" as="geometry" />
        </mxCell>
        <mxCell id="GDep3V4h5ndJyahkYe-O-13" style="edgeStyle=orthogonalEdgeStyle;rounded=0;orthogonalLoop=1;jettySize=auto;html=1;entryX=0.5;entryY=0;entryDx=0;entryDy=0;exitX=0.5;exitY=1;exitDx=0;exitDy=0;" edge="1" parent="1" source="GDep3V4h5ndJyahkYe-O-1" target="GDep3V4h5ndJyahkYe-O-6">
          <mxGeometry relative="1" as="geometry" />
        </mxCell>
        <mxCell id="GDep3V4h5ndJyahkYe-O-15" style="edgeStyle=orthogonalEdgeStyle;rounded=0;orthogonalLoop=1;jettySize=auto;html=1;entryX=0;entryY=0.5;entryDx=0;entryDy=0;exitX=1;exitY=0.5;exitDx=0;exitDy=0;" edge="1" parent="1" source="GDep3V4h5ndJyahkYe-O-1" target="GDep3V4h5ndJyahkYe-O-14">
          <mxGeometry relative="1" as="geometry" />
        </mxCell>
        <mxCell id="GDep3V4h5ndJyahkYe-O-17" style="edgeStyle=orthogonalEdgeStyle;rounded=0;orthogonalLoop=1;jettySize=auto;html=1;entryX=0.5;entryY=0;entryDx=0;entryDy=0;exitX=0.5;exitY=1;exitDx=0;exitDy=0;" edge="1" parent="1" source="GDep3V4h5ndJyahkYe-O-1" target="GDep3V4h5ndJyahkYe-O-16">
          <mxGeometry relative="1" as="geometry" />
        </mxCell>
        <mxCell id="GDep3V4h5ndJyahkYe-O-1" value="&lt;div align=&quot;center&quot;&gt;&lt;b&gt;&lt;font style=&quot;font-size: 18px;&quot;&gt;runRegistryChecks&lt;/font&gt;&lt;/b&gt;&lt;/div&gt;&lt;div align=&quot;center&quot;&gt;&lt;br&gt;&lt;/div&gt;&lt;div align=&quot;center&quot;&gt;Input Parameters&lt;br&gt;&lt;/div&gt;&lt;div align=&quot;center&quot;&gt;&lt;table style=&quot;border: 1px solid rgb(0, 0, 0); border-collapse: collapse;&quot; border=&quot;1&quot;&gt;&lt;tbody&gt;&lt;tr&gt;&lt;td&gt;.registry&lt;/td&gt;&lt;td&gt;Registry initials&lt;br&gt;&lt;/td&gt;&lt;/tr&gt;&lt;tr&gt;&lt;td&gt;.prelimDataFolderUrl&lt;/td&gt;&lt;td&gt;Url datapull folder&lt;br&gt;&lt;/td&gt;&lt;/tr&gt;&lt;tr&gt;&lt;td&gt;.prelimDataPullDate&lt;/td&gt;&lt;td&gt;Current datapull date&lt;br&gt;&lt;/td&gt;&lt;/tr&gt;&lt;tr&gt;&lt;td&gt;.lastMonthDataFolderUrl&lt;/td&gt;&lt;td&gt;Last month datapull folder&lt;br&gt;&lt;/td&gt;&lt;/tr&gt;&lt;tr&gt;&lt;td&gt;.lastMonthDataPullDate&lt;/td&gt;&lt;td&gt;Last month datapull date&lt;br&gt;&lt;/td&gt;&lt;/tr&gt;&lt;tr&gt;&lt;td&gt;&lt;span style=&quot;background-color: rgb(255, 128, 128);&quot;&gt;.codebookUrl&lt;/span&gt;&lt;/td&gt;&lt;td&gt;&lt;span style=&quot;background-color: rgb(255, 128, 128);&quot;&gt;Url to location of codebook&lt;br&gt;&lt;/span&gt;&lt;/td&gt;&lt;/tr&gt;&lt;tr&gt;&lt;td&gt;&lt;span style=&quot;background-color: rgb(255, 255, 128);&quot;&gt;.datasetsToCheck&lt;/span&gt;&lt;/td&gt;&lt;td&gt;&lt;span style=&quot;background-color: rgb(255, 255, 128);&quot;&gt;Vector of datasets to check&lt;br&gt;&lt;/span&gt;&lt;/td&gt;&lt;/tr&gt;&lt;tr&gt;&lt;td&gt;&lt;span style=&quot;background-color: rgb(128, 255, 128);&quot;&gt;.outputUrl&lt;/span&gt;&lt;/td&gt;&lt;td&gt;&lt;span style=&quot;background-color: rgb(128, 255, 128);&quot;&gt;Url of output files&lt;br&gt;&lt;/span&gt;&lt;/td&gt;&lt;/tr&gt;&lt;tr&gt;&lt;td&gt;.isR&lt;/td&gt;&lt;td&gt;If datasets are R format&lt;br&gt;&lt;/td&gt;&lt;/tr&gt;&lt;/tbody&gt;&lt;/table&gt;&lt;/div&gt;&lt;div align=&quot;center&quot;&gt;&lt;br&gt;&lt;/div&gt;&lt;div align=&quot;center&quot;&gt;Functions Used&lt;br&gt;&lt;/div&gt;&lt;div align=&quot;center&quot;&gt;&lt;table style=&quot;border: 1px solid rgb(0, 0, 0); border-collapse: collapse;&quot; border=&quot;1&quot;&gt;&lt;tbody&gt;&lt;tr&gt;&lt;td&gt;&lt;span style=&quot;background-color: rgb(255, 255, 255);&quot;&gt;pullCodebookFromExcelFile&lt;br&gt;&lt;/span&gt;&lt;/td&gt;&lt;td&gt;&lt;span style=&quot;background-color: rgb(255, 255, 255);&quot;&gt;Pull CE codebook from an excel file&lt;br&gt;&lt;/span&gt;&lt;/td&gt;&lt;/tr&gt;&lt;tr&gt;&lt;td&gt;&lt;span style=&quot;background-color: rgb(255, 255, 255);&quot;&gt;pullData&lt;br&gt;&lt;/span&gt;&lt;/td&gt;&lt;td&gt;&lt;span style=&quot;background-color: rgb(255, 255, 255);&quot;&gt;Pull data from a specific location&lt;br&gt;&lt;/span&gt;&lt;/td&gt;&lt;/tr&gt;&lt;tr&gt;&lt;td&gt;criticalChecks&lt;br&gt;&lt;/td&gt;&lt;td&gt;Run CE DQ check code&lt;br&gt;&lt;/td&gt;&lt;/tr&gt;&lt;tr&gt;&lt;td&gt;submitToDataStore&lt;br&gt;&lt;/td&gt;&lt;td&gt;Save CE DQ check output to location&lt;br&gt;&lt;/td&gt;&lt;/tr&gt;&lt;tr&gt;&lt;td&gt;registrydqchecksreport::runApplication&lt;br&gt;&lt;/td&gt;&lt;td&gt;Run CE DQ check report&lt;br&gt;&lt;/td&gt;&lt;/tr&gt;&lt;/tbody&gt;&lt;/table&gt;&lt;br&gt;&lt;/div&gt;" style="rounded=0;whiteSpace=wrap;html=1;align=center;" vertex="1" parent="1">
          <mxGeometry x="100" y="10" width="480" height="380" as="geometry" />
        </mxCell>
        <mxCell id="GDep3V4h5ndJyahkYe-O-28" style="edgeStyle=orthogonalEdgeStyle;rounded=0;orthogonalLoop=1;jettySize=auto;html=1;entryX=0;entryY=0.5;entryDx=0;entryDy=0;exitX=0.5;exitY=1;exitDx=0;exitDy=0;" edge="1" parent="1" source="GDep3V4h5ndJyahkYe-O-6" target="GDep3V4h5ndJyahkYe-O-27">
          <mxGeometry relative="1" as="geometry">
            <mxPoint x="1580" y="790" as="sourcePoint" />
          </mxGeometry>
        </mxCell>
        <mxCell id="GDep3V4h5ndJyahkYe-O-32" style="edgeStyle=orthogonalEdgeStyle;rounded=0;orthogonalLoop=1;jettySize=auto;html=1;entryX=0;entryY=0.5;entryDx=0;entryDy=0;exitX=0.5;exitY=1;exitDx=0;exitDy=0;" edge="1" parent="1" source="GDep3V4h5ndJyahkYe-O-6" target="GDep3V4h5ndJyahkYe-O-31">
          <mxGeometry relative="1" as="geometry">
            <mxPoint x="1600" y="790" as="sourcePoint" />
          </mxGeometry>
        </mxCell>
        <mxCell id="GDep3V4h5ndJyahkYe-O-6" value="&lt;div align=&quot;center&quot;&gt;&lt;b&gt;&lt;font style=&quot;font-size: 18px;&quot;&gt;submitToDataStore&lt;/font&gt;&lt;/b&gt;&lt;/div&gt;&lt;div align=&quot;center&quot;&gt;&lt;br&gt;&lt;/div&gt;&lt;div align=&quot;center&quot;&gt;Input Parameters&lt;br&gt;&lt;/div&gt;&lt;div align=&quot;center&quot;&gt;&lt;table style=&quot;border: 1px solid rgb(0, 0, 0); border-collapse: collapse;&quot; border=&quot;1&quot;&gt;&lt;tbody&gt;&lt;tr&gt;&lt;td&gt;.registry&lt;br&gt;&lt;/td&gt;&lt;td&gt;Registry initials&lt;br&gt;&lt;/td&gt;&lt;/tr&gt;&lt;tr&gt;&lt;td&gt;.prelimDataPullDate&lt;br&gt;&lt;/td&gt;&lt;td&gt;Current datapull date&lt;br&gt;&lt;/td&gt;&lt;/tr&gt;&lt;tr&gt;&lt;td&gt;&lt;span style=&quot;background-color: rgb(128, 255, 128);&quot;&gt;.outputUrl&lt;br&gt;&lt;/span&gt;&lt;/td&gt;&lt;td&gt;&lt;span style=&quot;background-color: rgb(128, 255, 128);&quot;&gt;Url of output files&lt;br&gt;&lt;/span&gt;&lt;/td&gt;&lt;/tr&gt;&lt;tr&gt;&lt;td&gt;&lt;span style=&quot;background-color: rgb(64, 128, 128);&quot;&gt;&lt;font color=&quot;#ffffff&quot;&gt;.checkOutput&lt;/font&gt;&lt;br&gt;&lt;/span&gt;&lt;/td&gt;&lt;td&gt;&lt;span style=&quot;background-color: rgb(64, 128, 128);&quot;&gt;&lt;font color=&quot;#ffffff&quot;&gt;Results of criticalChecks() function&lt;/font&gt;&lt;br&gt;&lt;/span&gt;&lt;/td&gt;&lt;/tr&gt;&lt;/tbody&gt;&lt;/table&gt;&lt;/div&gt;&lt;div align=&quot;center&quot;&gt;&lt;br&gt;&lt;/div&gt;&lt;div align=&quot;center&quot;&gt;Functions Used&lt;/div&gt;&lt;div align=&quot;center&quot;&gt;&lt;table style=&quot;border: 1px solid rgb(0, 0, 0); border-collapse: collapse;&quot; border=&quot;1&quot;&gt;&lt;tbody&gt;&lt;tr&gt;&lt;td&gt;createDataStoreFolder&lt;br&gt;&lt;/td&gt;&lt;td&gt;Create an output folder if it does not already exist&lt;br&gt;&lt;/td&gt;&lt;/tr&gt;&lt;tr&gt;&lt;td&gt;outputListings&lt;br&gt;&lt;/td&gt;&lt;td&gt;Save .xlsx files of the CE DQ check listings&lt;br&gt;&lt;/td&gt;&lt;/tr&gt;&lt;/tbody&gt;&lt;/table&gt;&lt;br&gt;&lt;/div&gt;&lt;div align=&quot;center&quot;&gt;&lt;br&gt;&lt;/div&gt;" style="rounded=0;whiteSpace=wrap;html=1;align=center;" vertex="1" parent="1">
          <mxGeometry x="1420" y="480" width="481" height="240" as="geometry" />
        </mxCell>
        <mxCell id="GDep3V4h5ndJyahkYe-O-7" value="&lt;div&gt;&lt;b&gt;&lt;font style=&quot;font-size: 18px;&quot;&gt;pullCodebookFromExcelFile&lt;/font&gt;&lt;/b&gt;&lt;/div&gt;&lt;div&gt;&lt;br&gt;&lt;/div&gt;&lt;div align=&quot;center&quot;&gt;Input Parameters&lt;br&gt;&lt;/div&gt;&lt;div align=&quot;center&quot;&gt;&lt;table style=&quot;border: 1px solid rgb(0, 0, 0); border-collapse: collapse;&quot; border=&quot;1&quot;&gt;&lt;tbody&gt;&lt;tr&gt;&lt;td&gt;&lt;span style=&quot;background-color: rgb(255, 128, 128);&quot;&gt;.fileUrl&lt;br&gt;&lt;/span&gt;&lt;/td&gt;&lt;td&gt;&lt;span style=&quot;background-color: rgb(255, 128, 128);&quot;&gt;Url to the codebook file in .xlsx format&lt;br&gt;&lt;/span&gt;&lt;/td&gt;&lt;/tr&gt;&lt;tr&gt;&lt;td&gt;&lt;span style=&quot;background-color: rgb(255, 255, 128);&quot;&gt;.sheetName&lt;br&gt;&lt;/span&gt;&lt;/td&gt;&lt;td&gt;&lt;span style=&quot;background-color: rgb(255, 255, 128);&quot;&gt;Name of the sheet to pull from&lt;br&gt;&lt;/span&gt;&lt;/td&gt;&lt;/tr&gt;&lt;/tbody&gt;&lt;/table&gt;&lt;/div&gt;&lt;div&gt;&lt;br&gt;&lt;/div&gt;&lt;div&gt;Returns&lt;/div&gt;&lt;div&gt;&lt;table style=&quot;border: 1px solid rgb(0, 0, 0); border-collapse: collapse;&quot; border=&quot;1&quot;&gt;&lt;tbody&gt;&lt;tr&gt;&lt;td&gt;(dataframe)&lt;br&gt;&lt;/td&gt;&lt;td&gt;Dataframe with the columns from the codebook&lt;br&gt;&lt;/td&gt;&lt;/tr&gt;&lt;tr&gt;&lt;td&gt;&lt;br&gt;&lt;/td&gt;&lt;td align=&quot;left&quot;&gt;&quot;varName&quot;&lt;br&gt;&quot;varLabel&quot;&lt;br&gt;&quot;catValues&quot;&lt;br&gt;&quot;numRangeLower&quot;&lt;br&gt;&quot;numRangeUpper&quot;&lt;br&gt;&quot;uniqueKey&quot;&lt;br&gt;&quot;essential&quot;&lt;br&gt;&quot;acceptableMissingness&quot;&lt;br&gt;&quot;nonExtremeMissingness&quot;&lt;br&gt;&quot;requiredNonMissing&quot;&lt;/td&gt;&lt;/tr&gt;&lt;/tbody&gt;&lt;/table&gt;&lt;br&gt;&lt;/div&gt;" style="rounded=0;whiteSpace=wrap;html=1;" vertex="1" parent="1">
          <mxGeometry x="-850" y="480" width="420" height="300" as="geometry" />
        </mxCell>
        <mxCell id="GDep3V4h5ndJyahkYe-O-21" style="edgeStyle=orthogonalEdgeStyle;rounded=0;orthogonalLoop=1;jettySize=auto;html=1;entryX=0;entryY=0.5;entryDx=0;entryDy=0;exitX=0.5;exitY=1;exitDx=0;exitDy=0;" edge="1" parent="1" source="GDep3V4h5ndJyahkYe-O-11" target="GDep3V4h5ndJyahkYe-O-18">
          <mxGeometry relative="1" as="geometry" />
        </mxCell>
        <mxCell id="GDep3V4h5ndJyahkYe-O-22" style="edgeStyle=orthogonalEdgeStyle;rounded=0;orthogonalLoop=1;jettySize=auto;html=1;entryX=0;entryY=0.5;entryDx=0;entryDy=0;exitX=0.5;exitY=1;exitDx=0;exitDy=0;" edge="1" parent="1" source="GDep3V4h5ndJyahkYe-O-11" target="GDep3V4h5ndJyahkYe-O-20">
          <mxGeometry relative="1" as="geometry" />
        </mxCell>
        <mxCell id="GDep3V4h5ndJyahkYe-O-11" value="&lt;div align=&quot;center&quot;&gt;&lt;b&gt;&lt;font style=&quot;font-size: 18px;&quot;&gt;pullData&lt;/font&gt;&lt;/b&gt;&lt;/div&gt;&lt;div align=&quot;center&quot;&gt;&lt;br&gt;&lt;/div&gt;&lt;div align=&quot;center&quot;&gt;Input Parameters&lt;/div&gt;&lt;div align=&quot;center&quot;&gt;&lt;table style=&quot;border: 1px solid rgb(0, 0, 0); border-collapse: collapse;&quot; border=&quot;1&quot;&gt;&lt;tbody&gt;&lt;tr&gt;&lt;td&gt;.datasetUrl&lt;br&gt;&lt;/td&gt;&lt;td&gt;Url of the dataset to be pulled&lt;br&gt;&lt;/td&gt;&lt;/tr&gt;&lt;tr&gt;&lt;td&gt;.isR&lt;br&gt;&lt;/td&gt;&lt;td&gt;Boolean: TRUE if .RDS file&lt;br&gt;&lt;/td&gt;&lt;/tr&gt;&lt;/tbody&gt;&lt;/table&gt;&lt;/div&gt;&lt;div align=&quot;center&quot;&gt;&lt;br&gt;&lt;/div&gt;&lt;div align=&quot;center&quot;&gt;Functions Used&lt;/div&gt;&lt;div align=&quot;center&quot;&gt;&lt;table style=&quot;border: 1px solid rgb(0, 0, 0); border-collapse: collapse;&quot; border=&quot;1&quot;&gt;&lt;tbody&gt;&lt;tr&gt;&lt;td&gt;pullRDSfromUrl&lt;br&gt;&lt;/td&gt;&lt;td&gt;Read in a .RDS file&lt;br&gt;&lt;/td&gt;&lt;/tr&gt;&lt;tr&gt;&lt;td&gt;pullDTAfromUrl&lt;br&gt;&lt;/td&gt;&lt;td&gt;Read in a .DTA file&lt;br&gt;&lt;/td&gt;&lt;/tr&gt;&lt;/tbody&gt;&lt;/table&gt;&lt;br&gt;&lt;/div&gt;&lt;div align=&quot;center&quot;&gt;Returns&lt;/div&gt;&lt;div align=&quot;center&quot;&gt;&lt;table style=&quot;border: 1px solid rgb(0, 0, 0); border-collapse: collapse; background-color: rgb(230, 208, 222);&quot; border=&quot;1&quot;&gt;&lt;tbody&gt;&lt;tr&gt;&lt;td&gt;(dataframe)&lt;br&gt;&lt;/td&gt;&lt;td&gt;Dataframe of the pulled dataset&lt;br&gt;&lt;/td&gt;&lt;/tr&gt;&lt;tr&gt;&lt;td&gt;&lt;br&gt;&lt;/td&gt;&lt;td&gt;&amp;lt;all vars in dataset&amp;gt;&lt;br&gt;&lt;/td&gt;&lt;/tr&gt;&lt;/tbody&gt;&lt;/table&gt;&lt;/div&gt;" style="rounded=0;whiteSpace=wrap;html=1;" vertex="1" parent="1">
          <mxGeometry x="-345" y="480" width="390" height="230" as="geometry" />
        </mxCell>
        <mxCell id="GDep3V4h5ndJyahkYe-O-14" value="&lt;div align=&quot;center&quot;&gt;&lt;b&gt;&lt;font style=&quot;font-size: 18px;&quot;&gt;registrydqchecksreport::runApplication&lt;/font&gt;&lt;/b&gt;&lt;/div&gt;&lt;div align=&quot;center&quot;&gt;&lt;br&gt;&lt;/div&gt;&lt;div align=&quot;center&quot;&gt;Input Parameters&lt;/div&gt;&lt;div align=&quot;center&quot;&gt;&lt;table style=&quot;border: 1px solid rgb(0, 0, 0); border-collapse: collapse;&quot; border=&quot;1&quot;&gt;&lt;tbody&gt;&lt;tr&gt;&lt;td&gt;&lt;span style=&quot;background-color: rgb(128, 255, 128);&quot;&gt;.urlToChecks&lt;br&gt;&lt;/span&gt;&lt;/td&gt;&lt;td&gt;&lt;span style=&quot;background-color: rgb(128, 255, 128);&quot;&gt;Location of the CE DQ check results&lt;br&gt;&lt;/span&gt;&lt;/td&gt;&lt;/tr&gt;&lt;/tbody&gt;&lt;/table&gt;&lt;br&gt;&lt;/div&gt;" style="rounded=0;whiteSpace=wrap;html=1;align=center;" vertex="1" parent="1">
          <mxGeometry x="830" y="155" width="420" height="90" as="geometry" />
        </mxCell>
        <mxCell id="GDep3V4h5ndJyahkYe-O-39" style="edgeStyle=orthogonalEdgeStyle;rounded=0;orthogonalLoop=1;jettySize=auto;html=1;entryX=1;entryY=0.5;entryDx=0;entryDy=0;exitX=0.5;exitY=1;exitDx=0;exitDy=0;" edge="1" parent="1" source="GDep3V4h5ndJyahkYe-O-16" target="GDep3V4h5ndJyahkYe-O-37">
          <mxGeometry relative="1" as="geometry">
            <mxPoint x="880" y="1090" as="sourcePoint" />
          </mxGeometry>
        </mxCell>
        <mxCell id="GDep3V4h5ndJyahkYe-O-41" style="edgeStyle=orthogonalEdgeStyle;rounded=0;orthogonalLoop=1;jettySize=auto;html=1;entryX=1;entryY=0.5;entryDx=0;entryDy=0;exitX=0.5;exitY=1;exitDx=0;exitDy=0;" edge="1" parent="1" source="GDep3V4h5ndJyahkYe-O-16" target="GDep3V4h5ndJyahkYe-O-40">
          <mxGeometry relative="1" as="geometry">
            <mxPoint x="840" y="1140" as="sourcePoint" />
          </mxGeometry>
        </mxCell>
        <mxCell id="GDep3V4h5ndJyahkYe-O-48" style="edgeStyle=orthogonalEdgeStyle;rounded=0;orthogonalLoop=1;jettySize=auto;html=1;entryX=1;entryY=0.5;entryDx=0;entryDy=0;exitX=0.5;exitY=1;exitDx=0;exitDy=0;" edge="1" parent="1" source="GDep3V4h5ndJyahkYe-O-16" target="GDep3V4h5ndJyahkYe-O-42">
          <mxGeometry relative="1" as="geometry">
            <mxPoint x="860" y="1120" as="sourcePoint" />
          </mxGeometry>
        </mxCell>
        <mxCell id="GDep3V4h5ndJyahkYe-O-49" style="edgeStyle=orthogonalEdgeStyle;rounded=0;orthogonalLoop=1;jettySize=auto;html=1;entryX=1;entryY=0.5;entryDx=0;entryDy=0;exitX=0.5;exitY=1;exitDx=0;exitDy=0;" edge="1" parent="1" source="GDep3V4h5ndJyahkYe-O-16" target="GDep3V4h5ndJyahkYe-O-43">
          <mxGeometry relative="1" as="geometry">
            <mxPoint x="910" y="1060" as="sourcePoint" />
          </mxGeometry>
        </mxCell>
        <mxCell id="GDep3V4h5ndJyahkYe-O-50" style="edgeStyle=orthogonalEdgeStyle;rounded=0;orthogonalLoop=1;jettySize=auto;html=1;entryX=0;entryY=0.5;entryDx=0;entryDy=0;exitX=0.5;exitY=1;exitDx=0;exitDy=0;" edge="1" parent="1" source="GDep3V4h5ndJyahkYe-O-16" target="GDep3V4h5ndJyahkYe-O-44">
          <mxGeometry relative="1" as="geometry">
            <mxPoint x="870" y="1080" as="sourcePoint" />
          </mxGeometry>
        </mxCell>
        <mxCell id="GDep3V4h5ndJyahkYe-O-51" style="edgeStyle=orthogonalEdgeStyle;rounded=0;orthogonalLoop=1;jettySize=auto;html=1;entryX=0;entryY=0.5;entryDx=0;entryDy=0;exitX=0.5;exitY=1;exitDx=0;exitDy=0;" edge="1" parent="1" source="GDep3V4h5ndJyahkYe-O-16" target="GDep3V4h5ndJyahkYe-O-45">
          <mxGeometry relative="1" as="geometry">
            <mxPoint x="890" y="1060" as="sourcePoint" />
          </mxGeometry>
        </mxCell>
        <mxCell id="GDep3V4h5ndJyahkYe-O-52" style="edgeStyle=orthogonalEdgeStyle;rounded=0;orthogonalLoop=1;jettySize=auto;html=1;entryX=0;entryY=0.5;entryDx=0;entryDy=0;exitX=0.5;exitY=1;exitDx=0;exitDy=0;" edge="1" parent="1" source="GDep3V4h5ndJyahkYe-O-16" target="GDep3V4h5ndJyahkYe-O-46">
          <mxGeometry relative="1" as="geometry">
            <mxPoint x="850" y="1100" as="sourcePoint" />
          </mxGeometry>
        </mxCell>
        <mxCell id="GDep3V4h5ndJyahkYe-O-53" style="edgeStyle=orthogonalEdgeStyle;rounded=0;orthogonalLoop=1;jettySize=auto;html=1;entryX=0;entryY=0.5;entryDx=0;entryDy=0;exitX=0.5;exitY=1;exitDx=0;exitDy=0;" edge="1" parent="1" source="GDep3V4h5ndJyahkYe-O-16" target="GDep3V4h5ndJyahkYe-O-47">
          <mxGeometry relative="1" as="geometry">
            <mxPoint x="860" y="1080" as="sourcePoint" />
          </mxGeometry>
        </mxCell>
        <mxCell id="GDep3V4h5ndJyahkYe-O-16" value="&lt;div align=&quot;center&quot;&gt;&lt;b&gt;&lt;font style=&quot;font-size: 18px;&quot;&gt;criticalChecks&lt;/font&gt;&lt;/b&gt;&lt;/div&gt;&lt;div align=&quot;center&quot;&gt;&lt;br&gt;&lt;/div&gt;&lt;div align=&quot;center&quot;&gt;Input Parameters&lt;/div&gt;&lt;div align=&quot;center&quot;&gt;&lt;table style=&quot;border: 1px solid rgb(0, 0, 0); border-collapse: collapse;&quot; border=&quot;1&quot;&gt;&lt;tbody&gt;&lt;tr&gt;&lt;td&gt;&lt;span style=&quot;background-color: rgb(255, 255, 255);&quot;&gt;.dsToCheck&lt;br&gt;&lt;/span&gt;&lt;/td&gt;&lt;td&gt;&lt;span style=&quot;background-color: rgb(255, 255, 255);&quot;&gt;Dataframe to run the CE DQ checks on&lt;br&gt;&lt;/span&gt;&lt;/td&gt;&lt;/tr&gt;&lt;tr&gt;&lt;td&gt;&lt;span style=&quot;background-color: rgb(255, 255, 255);&quot;&gt;.compDsToCheck&lt;br&gt;&lt;/span&gt;&lt;/td&gt;&lt;td&gt;&lt;span style=&quot;background-color: rgb(255, 255, 255);&quot;&gt;Dataframe from last month data&lt;br&gt;&lt;/span&gt;&lt;/td&gt;&lt;/tr&gt;&lt;tr&gt;&lt;td&gt;.listOfEssentialVars&lt;br&gt;&lt;/td&gt;&lt;td&gt;Char vector of essential variables&lt;br&gt;&lt;/td&gt;&lt;/tr&gt;&lt;tr&gt;&lt;td&gt;.listOfSupposedVars&lt;br&gt;&lt;/td&gt;&lt;td&gt;Char vector of supposed variables&lt;br&gt;&lt;/td&gt;&lt;/tr&gt;&lt;tr&gt;&lt;td&gt;.uniqueKeys&lt;br&gt;&lt;/td&gt;&lt;td&gt;Char vector of unique keys&lt;br&gt;&lt;/td&gt;&lt;/tr&gt;&lt;/tbody&gt;&lt;/table&gt;&lt;br&gt;&lt;/div&gt;&lt;div align=&quot;center&quot;&gt;Functions Used&lt;/div&gt;&lt;div align=&quot;center&quot;&gt;&lt;table style=&quot;border: 1px solid rgb(0, 0, 0); border-collapse: collapse;&quot; border=&quot;1&quot;&gt;&lt;tbody&gt;&lt;tr&gt;&lt;td&gt;checkForDuplicateUniqueIds&lt;br&gt;&lt;/td&gt;&lt;td&gt;CC1: Check for duplicate unique keys&lt;br&gt;&lt;/td&gt;&lt;/tr&gt;&lt;tr&gt;&lt;td&gt;checkForOmittedVariables&lt;br&gt;&lt;/td&gt;&lt;td&gt;CC2: Check for vars omitted from last month&lt;br&gt;&lt;/td&gt;&lt;/tr&gt;&lt;tr&gt;&lt;td&gt;checkForExtraVariables&lt;br&gt;&lt;/td&gt;&lt;td&gt;CC3: Check for new vars this month&lt;br&gt;&lt;/td&gt;&lt;/tr&gt;&lt;tr&gt;&lt;td&gt;checkForMissingVariableLabels&lt;br&gt;&lt;/td&gt;&lt;td&gt;CC4: Check for missing var labels&lt;br&gt;&lt;/td&gt;&lt;/tr&gt;&lt;tr&gt;&lt;td&gt;checkForAddedRows&lt;br&gt;&lt;/td&gt;&lt;td&gt;CC5: Check for rows added since last month&lt;br&gt;&lt;/td&gt;&lt;/tr&gt;&lt;tr&gt;&lt;td&gt;checkForRemovedRows&lt;br&gt;&lt;/td&gt;&lt;td&gt;CC6: Check for rows removed since last month&lt;/td&gt;&lt;/tr&gt;&lt;tr&gt;&lt;td&gt;checkForGivenItemsNonresponse&lt;br&gt;&lt;/td&gt;&lt;td&gt;CC7: Essential item missingness&lt;br&gt;&lt;/td&gt;&lt;/tr&gt;&lt;tr&gt;&lt;td&gt;checkForMonthlyMissingness&lt;br&gt;&lt;/td&gt;&lt;td&gt;CC8: Month to month essential item missingness&lt;br&gt;&lt;/td&gt;&lt;/tr&gt;&lt;/tbody&gt;&lt;/table&gt;&lt;br&gt;&lt;/div&gt;&lt;div align=&quot;center&quot;&gt;&lt;br&gt;&lt;/div&gt;&lt;div align=&quot;center&quot;&gt;Returns&lt;/div&gt;&lt;div&gt;&lt;table align=&quot;center&quot; style=&quot;border: 1px solid rgb(0, 0, 0); border-collapse: collapse;&quot; border=&quot;1&quot;&gt;&lt;tbody&gt;&lt;tr&gt;&lt;td&gt;&lt;font color=&quot;#ffffff&quot;&gt;&lt;span style=&quot;background-color: rgb(64, 128, 128);&quot;&gt;(list)&lt;br&gt;&lt;/span&gt;&lt;/font&gt;&lt;/td&gt;&lt;td&gt;&lt;font color=&quot;#ffffff&quot;&gt;&lt;span style=&quot;background-color: rgb(64, 128, 128);&quot;&gt;List containing the results of the CE DQ critical checks&lt;br&gt;&lt;/span&gt;&lt;/font&gt;&lt;/td&gt;&lt;/tr&gt;&lt;tr&gt;&lt;td&gt;&lt;br&gt;&lt;/td&gt;&lt;td&gt;&lt;div&gt;&lt;span style=&quot;background-color: rgb(192, 192, 192);&quot;&gt;criticalCheck1&lt;/span&gt;&lt;br&gt;&lt;span style=&quot;background-color: rgb(255, 128, 64);&quot;&gt;criticalCheck2&lt;/span&gt;&lt;br&gt;&lt;span style=&quot;background-color: rgb(128, 128, 255);&quot;&gt;criticalCheck3&lt;/span&gt;&lt;br&gt;&lt;span style=&quot;background-color: rgb(128, 128, 0);&quot;&gt;criticalCheck4&lt;/span&gt;&lt;br&gt;&lt;span style=&quot;background-color: rgb(192, 192, 192);&quot;&gt;&lt;font color=&quot;#ffffff&quot;&gt;criticalCheck5&lt;/font&gt;&lt;/span&gt;&lt;br&gt;&lt;span style=&quot;background-color: rgb(255, 128, 64);&quot;&gt;&lt;font color=&quot;#ffffff&quot;&gt;criticalCheck6&lt;/font&gt;&lt;/span&gt;&lt;br&gt;&lt;span style=&quot;background-color: rgb(128, 128, 255);&quot;&gt;&lt;font color=&quot;#ffffff&quot;&gt;criticalCheck7&lt;/font&gt;&lt;/span&gt;&lt;br&gt;&lt;/div&gt;&lt;span style=&quot;background-color: rgb(128, 128, 0);&quot;&gt;&lt;font color=&quot;#ffffff&quot;&gt;criticalCheck8&lt;/font&gt;&lt;/span&gt;&lt;/td&gt;&lt;/tr&gt;&lt;/tbody&gt;&lt;/table&gt;&lt;br&gt;&lt;/div&gt;" style="rounded=0;whiteSpace=wrap;html=1;" vertex="1" parent="1">
          <mxGeometry x="700" y="480" width="540" height="530" as="geometry" />
        </mxCell>
        <mxCell id="GDep3V4h5ndJyahkYe-O-18" value="&lt;div align=&quot;center&quot;&gt;&lt;b&gt;&lt;font style=&quot;font-size: 18px;&quot;&gt;pullRDSfromUrl&lt;/font&gt;&lt;/b&gt;&lt;/div&gt;&lt;div align=&quot;center&quot;&gt;&lt;br&gt;&lt;/div&gt;&lt;div align=&quot;center&quot;&gt;Input Parameters&lt;/div&gt;&lt;div align=&quot;center&quot;&gt;&lt;table style=&quot;border: 1px solid rgb(0, 0, 0); border-collapse: collapse;&quot; border=&quot;1&quot;&gt;&lt;tbody&gt;&lt;tr&gt;&lt;td&gt;.datasetUrl&lt;br&gt;&lt;/td&gt;&lt;td&gt;Url to the .RDS dataset to pull&lt;br&gt;&lt;/td&gt;&lt;/tr&gt;&lt;/tbody&gt;&lt;/table&gt;&lt;br&gt;&lt;/div&gt;&lt;div align=&quot;center&quot;&gt;&lt;br&gt;&lt;/div&gt;&lt;div align=&quot;center&quot;&gt;Returns&lt;/div&gt;&lt;div align=&quot;center&quot;&gt;&lt;table style=&quot;border: 1px solid rgb(0, 0, 0); border-collapse: collapse; background-color: rgb(230, 208, 222);&quot; border=&quot;1&quot;&gt;&lt;tbody&gt;&lt;tr&gt;&lt;td&gt;(dataframe)&lt;br&gt;&lt;/td&gt;&lt;td&gt;Dataframe of the pulled dataset&lt;br&gt;&lt;/td&gt;&lt;/tr&gt;&lt;tr&gt;&lt;td&gt;&lt;br&gt;&lt;/td&gt;&lt;td&gt;&amp;lt;all vars in dataset&amp;gt;&lt;br&gt;&lt;/td&gt;&lt;/tr&gt;&lt;/tbody&gt;&lt;/table&gt;&lt;br&gt;&lt;/div&gt;" style="rounded=0;whiteSpace=wrap;html=1;align=center;" vertex="1" parent="1">
          <mxGeometry x="-115" y="760" width="315" height="210" as="geometry" />
        </mxCell>
        <mxCell id="GDep3V4h5ndJyahkYe-O-20" value="&lt;div align=&quot;center&quot;&gt;&lt;b&gt;&lt;font style=&quot;font-size: 18px;&quot;&gt;pullDTAfromUrl&lt;/font&gt;&lt;/b&gt;&lt;/div&gt;&lt;div align=&quot;center&quot;&gt;&lt;br&gt;&lt;/div&gt;&lt;div align=&quot;center&quot;&gt;Input Parameters&lt;/div&gt;&lt;div align=&quot;center&quot;&gt;&lt;table style=&quot;border: 1px solid rgb(0, 0, 0); border-collapse: collapse;&quot; border=&quot;1&quot;&gt;&lt;tbody&gt;&lt;tr&gt;&lt;td&gt;.datasetUrl&lt;br&gt;&lt;/td&gt;&lt;td&gt;Url to the .DTA dataset to pull&lt;br&gt;&lt;/td&gt;&lt;/tr&gt;&lt;/tbody&gt;&lt;/table&gt;&lt;br&gt;&lt;/div&gt;&lt;div align=&quot;center&quot;&gt;&lt;br&gt;&lt;/div&gt;&lt;div align=&quot;center&quot;&gt;Returns&lt;/div&gt;&lt;div align=&quot;center&quot;&gt;&lt;table style=&quot;border: 1px solid rgb(0, 0, 0); border-collapse: collapse; background-color: rgb(230, 208, 222);&quot; border=&quot;1&quot;&gt;&lt;tbody&gt;&lt;tr&gt;&lt;td&gt;(dataframe)&lt;br&gt;&lt;/td&gt;&lt;td&gt;Dataframe of the pulled dataset&lt;br&gt;&lt;/td&gt;&lt;/tr&gt;&lt;tr&gt;&lt;td&gt;&lt;br&gt;&lt;/td&gt;&lt;td&gt;&amp;lt;all vars in dataset&amp;gt;&lt;br&gt;&lt;/td&gt;&lt;/tr&gt;&lt;/tbody&gt;&lt;/table&gt;&lt;br&gt;&lt;/div&gt;" style="rounded=0;whiteSpace=wrap;html=1;align=center;" vertex="1" parent="1">
          <mxGeometry x="-115" y="1040" width="315" height="210" as="geometry" />
        </mxCell>
        <mxCell id="GDep3V4h5ndJyahkYe-O-23" value="&lt;div&gt;dataStoreFolder&lt;/div&gt;&lt;div&gt;&lt;br&gt;&lt;/div&gt;&lt;div&gt;&lt;table style=&quot;border: 1px solid rgb(0, 0, 0); border-collapse: collapse;&quot; border=&quot;1&quot;&gt;&lt;tbody&gt;&lt;tr&gt;&lt;td align=&quot;left&quot;&gt;&lt;span style=&quot;background-color: rgb(128, 255, 128);&quot;&gt;writeUrl&lt;/span&gt;&lt;span style=&quot;background-color: rgb(128, 255, 255);&quot;&gt;/checks&lt;/span&gt;&lt;br&gt;&lt;/td&gt;&lt;td align=&quot;left&quot;&gt;A folder to store the datachecks. Will be used in the report.&lt;br&gt;&lt;/td&gt;&lt;/tr&gt;&lt;tr&gt;&lt;td align=&quot;left&quot;&gt;&lt;span style=&quot;background-color: rgb(128, 255, 128);&quot;&gt;writeUrl&lt;/span&gt;&lt;span style=&quot;background-color: rgb(128, 255, 255);&quot;&gt;/checks/listing&lt;/span&gt;&lt;br&gt;&lt;/td&gt;&lt;td align=&quot;left&quot;&gt;A folder to store the listing .xslx files&lt;br&gt;&lt;/td&gt;&lt;/tr&gt;&lt;tr&gt;&lt;td align=&quot;left&quot;&gt;&lt;span style=&quot;background-color: rgb(128, 255, 128);&quot;&gt;writeUrl&lt;/span&gt;&lt;span style=&quot;background-color: rgb(128, 255, 255);&quot;&gt;/checks/listing&lt;/span&gt;&lt;span style=&quot;background-color: rgb(255, 128, 255);&quot;&gt;/&amp;lt;timestamp&amp;gt;&lt;/span&gt;&lt;br&gt;&lt;/td&gt;&lt;td align=&quot;left&quot;&gt;A folder for the listing .xlsx files of the current check run.&lt;br&gt;&lt;/td&gt;&lt;/tr&gt;&lt;/tbody&gt;&lt;/table&gt;&lt;br&gt;&lt;/div&gt;" style="shape=cylinder3;whiteSpace=wrap;html=1;boundedLbl=1;backgroundOutline=1;size=15;" vertex="1" parent="1">
          <mxGeometry x="1780" y="110" width="620" height="180" as="geometry" />
        </mxCell>
        <mxCell id="GDep3V4h5ndJyahkYe-O-24" style="edgeStyle=orthogonalEdgeStyle;rounded=0;orthogonalLoop=1;jettySize=auto;html=1;entryX=0.5;entryY=1;entryDx=0;entryDy=0;entryPerimeter=0;exitX=1;exitY=0.5;exitDx=0;exitDy=0;" edge="1" parent="1" source="GDep3V4h5ndJyahkYe-O-6" target="GDep3V4h5ndJyahkYe-O-23">
          <mxGeometry relative="1" as="geometry">
            <mxPoint x="1950" y="640" as="sourcePoint" />
            <mxPoint x="2140" y="310" as="targetPoint" />
          </mxGeometry>
        </mxCell>
        <mxCell id="GDep3V4h5ndJyahkYe-O-25" value="&lt;div&gt;writes&lt;/div&gt;&lt;div&gt;&lt;br&gt;&lt;/div&gt;&lt;div&gt;&lt;br&gt;&lt;/div&gt;&lt;div&gt;&lt;br&gt;&lt;/div&gt;&lt;div&gt;&lt;br&gt;&lt;/div&gt;&lt;div&gt;&lt;br&gt;&lt;/div&gt;&lt;div&gt;&lt;br&gt;&lt;/div&gt;&lt;div&gt;creates&lt;/div&gt;" style="edgeLabel;html=1;align=center;verticalAlign=middle;resizable=0;points=[];labelBackgroundColor=none;" vertex="1" connectable="0" parent="GDep3V4h5ndJyahkYe-O-24">
          <mxGeometry x="0.1397" y="-1" relative="1" as="geometry">
            <mxPoint x="-6" y="67" as="offset" />
          </mxGeometry>
        </mxCell>
        <mxCell id="GDep3V4h5ndJyahkYe-O-26" style="edgeStyle=orthogonalEdgeStyle;rounded=0;orthogonalLoop=1;jettySize=auto;html=1;entryX=0;entryY=0.5;entryDx=0;entryDy=0;entryPerimeter=0;exitX=1;exitY=0.5;exitDx=0;exitDy=0;" edge="1" parent="1" source="GDep3V4h5ndJyahkYe-O-14" target="GDep3V4h5ndJyahkYe-O-23">
          <mxGeometry relative="1" as="geometry">
            <mxPoint x="1300" y="210" as="sourcePoint" />
          </mxGeometry>
        </mxCell>
        <mxCell id="GDep3V4h5ndJyahkYe-O-27" value="&lt;div&gt;&lt;b&gt;&lt;font style=&quot;font-size: 18px;&quot;&gt;createDataStoreFolder&lt;/font&gt;&lt;/b&gt;&lt;/div&gt;&lt;div&gt;&lt;br&gt;&lt;/div&gt;&lt;div&gt;Input Parameters&lt;/div&gt;&lt;div&gt;&lt;table style=&quot;border: 1px solid rgb(0, 0, 0); border-collapse: collapse;&quot; border=&quot;1&quot;&gt;&lt;tbody&gt;&lt;tr&gt;&lt;td&gt;&lt;span style=&quot;background-color: rgb(255, 255, 255);&quot;&gt;.urlToCreate&lt;/span&gt;&lt;br&gt;&lt;/td&gt;&lt;td&gt;Url of the folder to create&lt;br&gt;&lt;/td&gt;&lt;/tr&gt;&lt;/tbody&gt;&lt;/table&gt;&lt;br&gt;&lt;/div&gt;" style="rounded=0;whiteSpace=wrap;html=1;" vertex="1" parent="1">
          <mxGeometry x="1730" y="760" width="260" height="110" as="geometry" />
        </mxCell>
        <mxCell id="GDep3V4h5ndJyahkYe-O-29" style="edgeStyle=orthogonalEdgeStyle;rounded=0;orthogonalLoop=1;jettySize=auto;html=1;entryX=0.5;entryY=1;entryDx=0;entryDy=0;entryPerimeter=0;exitX=1;exitY=0.5;exitDx=0;exitDy=0;" edge="1" parent="1" source="GDep3V4h5ndJyahkYe-O-27" target="GDep3V4h5ndJyahkYe-O-23">
          <mxGeometry relative="1" as="geometry" />
        </mxCell>
        <mxCell id="GDep3V4h5ndJyahkYe-O-33" style="edgeStyle=orthogonalEdgeStyle;rounded=0;orthogonalLoop=1;jettySize=auto;html=1;entryX=0.5;entryY=1;entryDx=0;entryDy=0;" edge="1" parent="1" source="GDep3V4h5ndJyahkYe-O-31" target="GDep3V4h5ndJyahkYe-O-27">
          <mxGeometry relative="1" as="geometry" />
        </mxCell>
        <mxCell id="GDep3V4h5ndJyahkYe-O-34" value="uses" style="edgeLabel;html=1;align=center;verticalAlign=middle;resizable=0;points=[];" vertex="1" connectable="0" parent="GDep3V4h5ndJyahkYe-O-33">
          <mxGeometry x="-0.1839" relative="1" as="geometry">
            <mxPoint x="-21" as="offset" />
          </mxGeometry>
        </mxCell>
        <mxCell id="GDep3V4h5ndJyahkYe-O-31" value="&lt;div&gt;&lt;b&gt;&lt;font style=&quot;font-size: 18px;&quot;&gt;outputListings&lt;/font&gt;&lt;/b&gt;&lt;/div&gt;&lt;div align=&quot;center&quot;&gt;&lt;br&gt;&lt;/div&gt;&lt;div align=&quot;center&quot;&gt;Input Parameters&lt;/div&gt;&lt;div align=&quot;center&quot;&gt;&lt;table style=&quot;border: 1px solid rgb(0, 0, 0); border-collapse: collapse;&quot; border=&quot;1&quot;&gt;&lt;tbody&gt;&lt;tr&gt;&lt;td&gt;&lt;span style=&quot;background-color: rgb(128, 255, 255);&quot;&gt;.listingUrl&lt;/span&gt;&lt;br&gt;&lt;/td&gt;&lt;td&gt;Url of the folder to create&lt;br&gt;&lt;/td&gt;&lt;/tr&gt;&lt;tr&gt;&lt;td&gt;&lt;span style=&quot;background-color: rgb(255, 128, 255);&quot;&gt;.timestamp&lt;/span&gt;&lt;br&gt;&lt;/td&gt;&lt;td&gt;Timestamp of the current run of the CE DQ checks&lt;br&gt;&lt;/td&gt;&lt;/tr&gt;&lt;tr&gt;&lt;td&gt;.checksToOutput&lt;br&gt;&lt;/td&gt;&lt;td&gt;The results of the CE DQ checks to be saved in listing format&lt;br&gt;&lt;/td&gt;&lt;/tr&gt;&lt;/tbody&gt;&lt;/table&gt;&lt;/div&gt;&lt;div&gt;&lt;br&gt;&lt;/div&gt;&lt;div&gt;Functions Used&lt;/div&gt;&lt;div&gt;&lt;table style=&quot;border: 1px solid rgb(0, 0, 0); border-collapse: collapse;&quot; border=&quot;1&quot;&gt;&lt;tbody&gt;&lt;tr&gt;&lt;td&gt;createDataStoreFolder&lt;br&gt;&lt;/td&gt;&lt;td&gt;Create an output folder if it does not already exist&lt;br&gt;&lt;/td&gt;&lt;/tr&gt;&lt;/tbody&gt;&lt;/table&gt;&lt;/div&gt;" style="rounded=0;whiteSpace=wrap;html=1;" vertex="1" parent="1">
          <mxGeometry x="1730" y="970" width="470" height="185" as="geometry" />
        </mxCell>
        <mxCell id="GDep3V4h5ndJyahkYe-O-35" style="edgeStyle=orthogonalEdgeStyle;rounded=0;orthogonalLoop=1;jettySize=auto;html=1;entryX=1;entryY=0.5;entryDx=0;entryDy=0;entryPerimeter=0;exitX=1;exitY=0.5;exitDx=0;exitDy=0;" edge="1" parent="1" source="GDep3V4h5ndJyahkYe-O-31" target="GDep3V4h5ndJyahkYe-O-23">
          <mxGeometry relative="1" as="geometry" />
        </mxCell>
        <mxCell id="GDep3V4h5ndJyahkYe-O-36" value="writes" style="edgeLabel;html=1;align=center;verticalAlign=middle;resizable=0;points=[];" vertex="1" connectable="0" parent="GDep3V4h5ndJyahkYe-O-35">
          <mxGeometry x="0.0508" y="-3" relative="1" as="geometry">
            <mxPoint x="-3" y="-64" as="offset" />
          </mxGeometry>
        </mxCell>
        <mxCell id="GDep3V4h5ndJyahkYe-O-37" value="&lt;div align=&quot;center&quot;&gt;&lt;b&gt;&lt;font style=&quot;font-size: 18px;&quot;&gt;checkForDuplicateUniqueIds&lt;/font&gt;&lt;/b&gt;&lt;/div&gt;&lt;div align=&quot;center&quot;&gt;&lt;br&gt;&lt;/div&gt;&lt;div align=&quot;center&quot;&gt;Input Parameters&lt;/div&gt;&lt;div align=&quot;center&quot;&gt;&lt;table style=&quot;border: 1px solid rgb(0, 0, 0); border-collapse: collapse;&quot; border=&quot;1&quot;&gt;&lt;tbody&gt;&lt;tr&gt;&lt;td&gt;.dsToCheck&lt;br&gt;&lt;/td&gt;&lt;td&gt;Dataframe to run the check on&lt;br&gt;&lt;/td&gt;&lt;/tr&gt;&lt;tr&gt;&lt;td&gt;.uniqueKey&lt;br&gt;&lt;/td&gt;&lt;td&gt;Char vector of unique key vars&lt;br&gt;&lt;/td&gt;&lt;/tr&gt;&lt;/tbody&gt;&lt;/table&gt;&lt;/div&gt;&lt;div align=&quot;center&quot;&gt;&lt;br&gt;&lt;/div&gt;&lt;div align=&quot;center&quot;&gt;&lt;br&gt;&lt;/div&gt;&lt;div align=&quot;center&quot;&gt;Returns&lt;/div&gt;&lt;div align=&quot;center&quot;&gt;&lt;table style=&quot;border: 1px solid rgb(0, 0, 0); border-collapse: collapse;&quot; border=&quot;1&quot;&gt;&lt;tbody&gt;&lt;tr&gt;&lt;td&gt;&lt;span style=&quot;background-color: rgb(192, 192, 192);&quot;&gt;(list)&lt;br&gt;&lt;/span&gt;&lt;/td&gt;&lt;td&gt;&lt;span style=&quot;background-color: rgb(192, 192, 192);&quot;&gt;List containing results of the checks&lt;br&gt;&lt;/span&gt;&lt;/td&gt;&lt;td&gt;&lt;span style=&quot;background-color: rgb(192, 192, 192);&quot;&gt;&lt;br&gt;&lt;/span&gt;&lt;/td&gt;&lt;/tr&gt;&lt;tr&gt;&lt;td&gt;&lt;span style=&quot;background-color: rgb(192, 192, 192);&quot;&gt;&lt;br&gt;&lt;/span&gt;&lt;/td&gt;&lt;td&gt;&lt;span style=&quot;background-color: rgb(192, 192, 192);&quot;&gt;pass&lt;br&gt;nDuplicateRows&lt;br&gt;listOfDuplicateRows&lt;br&gt;&lt;/span&gt;&lt;/td&gt;&lt;td&gt;&lt;span style=&quot;background-color: rgb(192, 192, 192);&quot;&gt;TRUE/FALSE if passed the check&lt;br&gt;Number of duplicate rows&lt;br&gt;Listing of the duplicate rows&lt;br&gt;&lt;/span&gt;&lt;/td&gt;&lt;/tr&gt;&lt;/tbody&gt;&lt;/table&gt;&lt;br&gt;&lt;/div&gt;" style="rounded=0;whiteSpace=wrap;html=1;align=center;" vertex="1" parent="1">
          <mxGeometry x="320" y="1050" width="490" height="240" as="geometry" />
        </mxCell>
        <mxCell id="GDep3V4h5ndJyahkYe-O-40" value="&lt;div align=&quot;center&quot;&gt;&lt;b&gt;&lt;font style=&quot;font-size: 18px;&quot;&gt;checkForOmittedVariables&lt;/font&gt;&lt;/b&gt;&lt;/div&gt;&lt;div align=&quot;center&quot;&gt;&lt;br&gt;&lt;/div&gt;&lt;div align=&quot;center&quot;&gt;Input Parameters&lt;/div&gt;&lt;div align=&quot;center&quot;&gt;&lt;table style=&quot;border: 1px solid rgb(0, 0, 0); border-collapse: collapse;&quot; border=&quot;1&quot;&gt;&lt;tbody&gt;&lt;tr&gt;&lt;td&gt;.dsToCheck&lt;br&gt;&lt;/td&gt;&lt;td&gt;Dataframe to run the check on&lt;br&gt;&lt;/td&gt;&lt;/tr&gt;&lt;tr&gt;&lt;td&gt;.listOfSupposedVars&lt;br&gt;&lt;/td&gt;&lt;td&gt;List of variables that should be in the dataset&lt;br&gt;&lt;/td&gt;&lt;/tr&gt;&lt;/tbody&gt;&lt;/table&gt;&lt;/div&gt;&lt;div align=&quot;center&quot;&gt;&lt;br&gt;&lt;/div&gt;&lt;div align=&quot;center&quot;&gt;&lt;br&gt;&lt;/div&gt;&lt;div align=&quot;center&quot;&gt;Returns&lt;/div&gt;&lt;div align=&quot;center&quot;&gt;&lt;table style=&quot;border: 1px solid rgb(0, 0, 0); border-collapse: collapse;&quot; border=&quot;1&quot;&gt;&lt;tbody&gt;&lt;tr&gt;&lt;td&gt;&lt;span style=&quot;background-color: rgb(255, 128, 64);&quot;&gt;(list)&lt;br&gt;&lt;/span&gt;&lt;/td&gt;&lt;td&gt;&lt;span style=&quot;background-color: rgb(255, 128, 64);&quot;&gt;List containing results of the checks&lt;br&gt;&lt;/span&gt;&lt;/td&gt;&lt;td&gt;&lt;span style=&quot;background-color: rgb(255, 128, 64);&quot;&gt;&lt;br&gt;&lt;/span&gt;&lt;/td&gt;&lt;/tr&gt;&lt;tr&gt;&lt;td&gt;&lt;span style=&quot;background-color: rgb(255, 128, 64);&quot;&gt;&lt;br&gt;&lt;/span&gt;&lt;/td&gt;&lt;td&gt;&lt;span style=&quot;background-color: rgb(255, 128, 64);&quot;&gt;pass&lt;br&gt;nOmittedVars&lt;br&gt;omittedVars&lt;br&gt;&lt;/span&gt;&lt;/td&gt;&lt;td&gt;&lt;span style=&quot;background-color: rgb(255, 128, 64);&quot;&gt;TRUE/FALSE if passed the check&lt;br&gt;Number of omitted variables&lt;br&gt;List of omitted variables&lt;br&gt;&lt;/span&gt;&lt;/td&gt;&lt;/tr&gt;&lt;/tbody&gt;&lt;/table&gt;&lt;br&gt;&lt;/div&gt;" style="rounded=0;whiteSpace=wrap;html=1;align=center;" vertex="1" parent="1">
          <mxGeometry x="320" y="1330" width="490" height="240" as="geometry" />
        </mxCell>
        <mxCell id="GDep3V4h5ndJyahkYe-O-42" value="&lt;div align=&quot;center&quot;&gt;&lt;b&gt;&lt;font style=&quot;font-size: 18px;&quot;&gt;checkForExtraVariables&lt;/font&gt;&lt;/b&gt;&lt;/div&gt;&lt;div align=&quot;center&quot;&gt;&lt;br&gt;&lt;/div&gt;&lt;div align=&quot;center&quot;&gt;Input Parameters&lt;/div&gt;&lt;div align=&quot;center&quot;&gt;&lt;table style=&quot;border: 1px solid rgb(0, 0, 0); border-collapse: collapse;&quot; border=&quot;1&quot;&gt;&lt;tbody&gt;&lt;tr&gt;&lt;td&gt;.dsToCheck&lt;br&gt;&lt;/td&gt;&lt;td&gt;Dataframe to run the check on&lt;br&gt;&lt;/td&gt;&lt;/tr&gt;&lt;tr&gt;&lt;td&gt;.listOfSupposedVars&lt;br&gt;&lt;/td&gt;&lt;td&gt;List of variables that should be in the dataset&lt;br&gt;&lt;/td&gt;&lt;/tr&gt;&lt;/tbody&gt;&lt;/table&gt;&lt;/div&gt;&lt;div align=&quot;center&quot;&gt;&lt;br&gt;&lt;/div&gt;&lt;div align=&quot;center&quot;&gt;&lt;br&gt;&lt;/div&gt;&lt;div align=&quot;center&quot;&gt;Returns&lt;/div&gt;&lt;div align=&quot;center&quot;&gt;&lt;table style=&quot;border: 1px solid rgb(0, 0, 0); border-collapse: collapse;&quot; border=&quot;1&quot;&gt;&lt;tbody&gt;&lt;tr&gt;&lt;td&gt;&lt;span style=&quot;background-color: rgb(128, 128, 255);&quot;&gt;(list)&lt;br&gt;&lt;/span&gt;&lt;/td&gt;&lt;td&gt;&lt;span style=&quot;background-color: rgb(128, 128, 255);&quot;&gt;List containing results of the checks&lt;br&gt;&lt;/span&gt;&lt;/td&gt;&lt;td&gt;&lt;span style=&quot;background-color: rgb(128, 128, 255);&quot;&gt;&lt;br&gt;&lt;/span&gt;&lt;/td&gt;&lt;/tr&gt;&lt;tr&gt;&lt;td&gt;&lt;span style=&quot;background-color: rgb(128, 128, 255);&quot;&gt;&lt;br&gt;&lt;/span&gt;&lt;/td&gt;&lt;td&gt;&lt;span style=&quot;background-color: rgb(128, 128, 255);&quot;&gt;pass&lt;br&gt;nExtraVars&lt;br&gt;extraVars&lt;br&gt;&lt;/span&gt;&lt;/td&gt;&lt;td&gt;&lt;span style=&quot;background-color: rgb(128, 128, 255);&quot;&gt;TRUE/FALSE if passed the check&lt;br&gt;Number of extra variables&lt;br&gt;List of extra variables&lt;br&gt;&lt;/span&gt;&lt;/td&gt;&lt;/tr&gt;&lt;/tbody&gt;&lt;/table&gt;&lt;br&gt;&lt;/div&gt;" style="rounded=0;whiteSpace=wrap;html=1;align=center;" vertex="1" parent="1">
          <mxGeometry x="320" y="1610" width="490" height="240" as="geometry" />
        </mxCell>
        <mxCell id="GDep3V4h5ndJyahkYe-O-43" value="&lt;div align=&quot;center&quot;&gt;&lt;b&gt;&lt;font style=&quot;font-size: 18px;&quot;&gt;checkForMissingVariableLabels&lt;/font&gt;&lt;/b&gt;&lt;/div&gt;&lt;div align=&quot;center&quot;&gt;&lt;br&gt;&lt;/div&gt;&lt;div align=&quot;center&quot;&gt;Input Parameters&lt;/div&gt;&lt;div align=&quot;center&quot;&gt;&lt;table style=&quot;border: 1px solid rgb(0, 0, 0); border-collapse: collapse;&quot; border=&quot;1&quot;&gt;&lt;tbody&gt;&lt;tr&gt;&lt;td&gt;.dsToCheck&lt;br&gt;&lt;/td&gt;&lt;td&gt;Dataframe to run the check on&lt;br&gt;&lt;/td&gt;&lt;/tr&gt;&lt;/tbody&gt;&lt;/table&gt;&lt;/div&gt;&lt;div align=&quot;center&quot;&gt;&lt;br&gt;&lt;/div&gt;&lt;div align=&quot;center&quot;&gt;&lt;br&gt;&lt;/div&gt;&lt;div align=&quot;center&quot;&gt;Returns&lt;/div&gt;&lt;div align=&quot;center&quot;&gt;&lt;table style=&quot;border: 1px solid rgb(0, 0, 0); border-collapse: collapse;&quot; border=&quot;1&quot;&gt;&lt;tbody&gt;&lt;tr&gt;&lt;td&gt;&lt;span style=&quot;background-color: rgb(128, 128, 0);&quot;&gt;(list)&lt;br&gt;&lt;/span&gt;&lt;/td&gt;&lt;td&gt;&lt;span style=&quot;background-color: rgb(128, 128, 0);&quot;&gt;List containing results of the checks&lt;br&gt;&lt;/span&gt;&lt;/td&gt;&lt;td&gt;&lt;span style=&quot;background-color: rgb(128, 128, 0);&quot;&gt;&lt;br&gt;&lt;/span&gt;&lt;/td&gt;&lt;/tr&gt;&lt;tr&gt;&lt;td&gt;&lt;span style=&quot;background-color: rgb(128, 128, 0);&quot;&gt;&lt;br&gt;&lt;/span&gt;&lt;/td&gt;&lt;td&gt;&lt;span style=&quot;background-color: rgb(128, 128, 0);&quot;&gt;pass&lt;br&gt;nMissingVariableLabels&lt;br&gt;listOfVarsWithMissingLabels&lt;br&gt;&lt;/span&gt;&lt;/td&gt;&lt;td&gt;&lt;span style=&quot;background-color: rgb(128, 128, 0);&quot;&gt;TRUE/FALSE if passed the check&lt;br&gt;Number of vars missing labels&lt;br&gt;List of vars missing labels&lt;br&gt;&lt;/span&gt;&lt;/td&gt;&lt;/tr&gt;&lt;/tbody&gt;&lt;/table&gt;&lt;br&gt;&lt;/div&gt;" style="rounded=0;whiteSpace=wrap;html=1;align=center;" vertex="1" parent="1">
          <mxGeometry x="320" y="1890" width="490" height="240" as="geometry" />
        </mxCell>
        <mxCell id="GDep3V4h5ndJyahkYe-O-44" value="&lt;div align=&quot;center&quot;&gt;&lt;b&gt;&lt;font style=&quot;font-size: 18px;&quot;&gt;checkForAddedRows&lt;/font&gt;&lt;/b&gt;&lt;/div&gt;&lt;div align=&quot;center&quot;&gt;&lt;br&gt;&lt;/div&gt;&lt;div align=&quot;center&quot;&gt;Input Parameters&lt;/div&gt;&lt;div align=&quot;center&quot;&gt;&lt;table style=&quot;border: 1px solid rgb(0, 0, 0); border-collapse: collapse;&quot; border=&quot;1&quot;&gt;&lt;tbody&gt;&lt;tr&gt;&lt;td&gt;.dsToCheck&lt;br&gt;&lt;/td&gt;&lt;td&gt;Dataframe to run the check on&lt;br&gt;&lt;/td&gt;&lt;/tr&gt;&lt;tr&gt;&lt;td&gt;.compDsToCheck&lt;br&gt;&lt;/td&gt;&lt;td&gt;Dataframe to compare to&lt;br&gt;&lt;/td&gt;&lt;/tr&gt;&lt;/tbody&gt;&lt;/table&gt;&lt;/div&gt;&lt;div align=&quot;center&quot;&gt;&lt;br&gt;&lt;/div&gt;&lt;div align=&quot;center&quot;&gt;&lt;br&gt;&lt;/div&gt;&lt;div align=&quot;center&quot;&gt;Returns&lt;/div&gt;&lt;div align=&quot;center&quot;&gt;&lt;table style=&quot;border: 1px solid rgb(0, 0, 0); border-collapse: collapse;&quot; border=&quot;1&quot;&gt;&lt;tbody&gt;&lt;tr&gt;&lt;td&gt;&lt;span style=&quot;background-color: rgb(192, 192, 192);&quot;&gt;&lt;font color=&quot;#ffffff&quot;&gt;(list)&lt;/font&gt;&lt;br&gt;&lt;/span&gt;&lt;/td&gt;&lt;td&gt;&lt;span style=&quot;background-color: rgb(192, 192, 192);&quot;&gt;&lt;font color=&quot;#ffffff&quot;&gt;List containing results of the checks&lt;/font&gt;&lt;br&gt;&lt;/span&gt;&lt;/td&gt;&lt;td&gt;&lt;span style=&quot;background-color: rgb(192, 192, 192);&quot;&gt;&lt;font color=&quot;#ffffff&quot;&gt;&lt;/font&gt;&lt;br&gt;&lt;/span&gt;&lt;/td&gt;&lt;/tr&gt;&lt;tr&gt;&lt;td&gt;&lt;span style=&quot;background-color: rgb(192, 192, 192);&quot;&gt;&lt;font color=&quot;#ffffff&quot;&gt;&lt;/font&gt;&lt;br&gt;&lt;/span&gt;&lt;/td&gt;&lt;td&gt;&lt;span style=&quot;background-color: rgb(192, 192, 192);&quot;&gt;&lt;font color=&quot;#ffffff&quot;&gt;pass&lt;br&gt;nAddedRows&lt;br&gt;nOldRows&lt;br&gt;propRowIncrease&lt;/font&gt;&lt;br&gt;&lt;/span&gt;&lt;/td&gt;&lt;td&gt;&lt;span style=&quot;background-color: rgb(192, 192, 192);&quot;&gt;&lt;font color=&quot;#ffffff&quot;&gt;TRUE/FALSE if passed the check&lt;br&gt;Number of added rows&lt;br&gt;Number of old rows&lt;br&gt;Proportion of row increase&lt;/font&gt;&lt;br&gt;&lt;/span&gt;&lt;/td&gt;&lt;/tr&gt;&lt;/tbody&gt;&lt;/table&gt;&lt;br&gt;&lt;/div&gt;" style="rounded=0;whiteSpace=wrap;html=1;align=center;" vertex="1" parent="1">
          <mxGeometry x="1140" y="1050" width="490" height="240" as="geometry" />
        </mxCell>
        <mxCell id="GDep3V4h5ndJyahkYe-O-45" value="&lt;div align=&quot;center&quot;&gt;&lt;b&gt;&lt;font style=&quot;font-size: 18px;&quot;&gt;checkForRemovedRows&lt;/font&gt;&lt;/b&gt;&lt;/div&gt;&lt;div align=&quot;center&quot;&gt;&lt;br&gt;&lt;/div&gt;&lt;div align=&quot;center&quot;&gt;Input Parameters&lt;/div&gt;&lt;div align=&quot;center&quot;&gt;&lt;table style=&quot;border: 1px solid rgb(0, 0, 0); border-collapse: collapse;&quot; border=&quot;1&quot;&gt;&lt;tbody&gt;&lt;tr&gt;&lt;td&gt;.dsToCheck&lt;br&gt;&lt;/td&gt;&lt;td&gt;Dataframe to run the check on&lt;br&gt;&lt;/td&gt;&lt;/tr&gt;&lt;tr&gt;&lt;td&gt;.compDsToCheck&lt;br&gt;&lt;/td&gt;&lt;td&gt;Dataframe to compare to&lt;br&gt;&lt;/td&gt;&lt;/tr&gt;&lt;tr&gt;&lt;td&gt;.uniqueKey&lt;br&gt;&lt;/td&gt;&lt;td&gt;Char vector of unique key vars&lt;/td&gt;&lt;/tr&gt;&lt;/tbody&gt;&lt;/table&gt;&lt;/div&gt;&lt;div align=&quot;center&quot;&gt;&lt;br&gt;&lt;/div&gt;&lt;div align=&quot;center&quot;&gt;&lt;br&gt;&lt;/div&gt;&lt;div align=&quot;center&quot;&gt;Returns&lt;/div&gt;&lt;div align=&quot;center&quot;&gt;&lt;table style=&quot;border: 1px solid rgb(0, 0, 0); border-collapse: collapse;&quot; border=&quot;1&quot;&gt;&lt;tbody&gt;&lt;tr&gt;&lt;td&gt;&lt;span style=&quot;background-color: rgb(255, 128, 64);&quot;&gt;&lt;font color=&quot;#ffffff&quot;&gt;(list)&lt;/font&gt;&lt;br&gt;&lt;/span&gt;&lt;/td&gt;&lt;td&gt;&lt;span style=&quot;background-color: rgb(255, 128, 64);&quot;&gt;&lt;font color=&quot;#ffffff&quot;&gt;List containing results of the checks&lt;/font&gt;&lt;br&gt;&lt;/span&gt;&lt;/td&gt;&lt;td&gt;&lt;span style=&quot;background-color: rgb(255, 128, 64);&quot;&gt;&lt;font color=&quot;#ffffff&quot;&gt;&lt;/font&gt;&lt;br&gt;&lt;/span&gt;&lt;/td&gt;&lt;/tr&gt;&lt;tr&gt;&lt;td&gt;&lt;span style=&quot;background-color: rgb(255, 128, 64);&quot;&gt;&lt;font color=&quot;#ffffff&quot;&gt;&lt;/font&gt;&lt;br&gt;&lt;/span&gt;&lt;/td&gt;&lt;td&gt;&lt;span style=&quot;background-color: rgb(255, 128, 64);&quot;&gt;&lt;font color=&quot;#ffffff&quot;&gt;pass&lt;br&gt;nRemovedRows&lt;br&gt;(df) inOldAndNotInNew&lt;/font&gt;&lt;br&gt;&lt;/span&gt;&lt;/td&gt;&lt;td&gt;&lt;span style=&quot;background-color: rgb(255, 128, 64);&quot;&gt;&lt;font color=&quot;#ffffff&quot;&gt;TRUE/FALSE if passed the check&lt;br&gt;Number of removed rows&lt;br&gt;Dataframe of removed unique keys&lt;/font&gt;&lt;br&gt;&lt;/span&gt;&lt;/td&gt;&lt;/tr&gt;&lt;/tbody&gt;&lt;/table&gt;&lt;br&gt;&lt;/div&gt;" style="rounded=0;whiteSpace=wrap;html=1;align=center;" vertex="1" parent="1">
          <mxGeometry x="1140" y="1330" width="490" height="240" as="geometry" />
        </mxCell>
        <mxCell id="GDep3V4h5ndJyahkYe-O-46" value="&lt;div align=&quot;center&quot;&gt;&lt;b&gt;&lt;font style=&quot;font-size: 18px;&quot;&gt;checkForGivenItemsNonresponse&lt;/font&gt;&lt;/b&gt;&lt;/div&gt;&lt;div align=&quot;center&quot;&gt;&lt;br&gt;&lt;/div&gt;&lt;div align=&quot;center&quot;&gt;Input Parameters&lt;/div&gt;&lt;div align=&quot;center&quot;&gt;&lt;table style=&quot;border: 1px solid rgb(0, 0, 0); border-collapse: collapse;&quot; border=&quot;1&quot;&gt;&lt;tbody&gt;&lt;tr&gt;&lt;td&gt;.dsToCheck&lt;br&gt;&lt;/td&gt;&lt;td&gt;Dataframe to run the check on&lt;br&gt;&lt;/td&gt;&lt;/tr&gt;&lt;tr&gt;&lt;td&gt;.listOfEssentialVars&lt;br&gt;&lt;/td&gt;&lt;td&gt;Character vector of essential variables&lt;br&gt;&lt;/td&gt;&lt;/tr&gt;&lt;/tbody&gt;&lt;/table&gt;&lt;/div&gt;&lt;div align=&quot;center&quot;&gt;&lt;br&gt;&lt;/div&gt;&lt;div align=&quot;center&quot;&gt;&lt;br&gt;&lt;/div&gt;&lt;div align=&quot;center&quot;&gt;Returns&lt;/div&gt;&lt;div align=&quot;center&quot;&gt;&lt;table style=&quot;border: 1px solid rgb(0, 0, 0); border-collapse: collapse;&quot; border=&quot;1&quot;&gt;&lt;tbody&gt;&lt;tr&gt;&lt;td&gt;&lt;span style=&quot;background-color: rgb(128, 128, 255);&quot;&gt;&lt;font color=&quot;#ffffff&quot;&gt;(list)&lt;/font&gt;&lt;br&gt;&lt;/span&gt;&lt;/td&gt;&lt;td&gt;&lt;span style=&quot;background-color: rgb(128, 128, 255);&quot;&gt;&lt;font color=&quot;#ffffff&quot;&gt;List containing results of the checks&lt;/font&gt;&lt;br&gt;&lt;/span&gt;&lt;/td&gt;&lt;td&gt;&lt;span style=&quot;background-color: rgb(128, 128, 255);&quot;&gt;&lt;font color=&quot;#ffffff&quot;&gt;&lt;/font&gt;&lt;br&gt;&lt;/span&gt;&lt;/td&gt;&lt;/tr&gt;&lt;tr&gt;&lt;td&gt;&lt;span style=&quot;background-color: rgb(128, 128, 255);&quot;&gt;&lt;font color=&quot;#ffffff&quot;&gt;&lt;/font&gt;&lt;br&gt;&lt;/span&gt;&lt;/td&gt;&lt;td&gt;&lt;span style=&quot;background-color: rgb(128, 128, 255);&quot;&gt;&lt;font color=&quot;#ffffff&quot;&gt;pass&lt;br&gt;(df) essentialVariablesMissingness&lt;br&gt;&lt;span style=&quot;white-space: pre;&quot;&gt;&#x9;&lt;/span&gt;varName&lt;br&gt;&lt;span style=&quot;white-space: pre;&quot;&gt;&#x9;&lt;/span&gt;nRows&lt;br&gt;&lt;span style=&quot;white-space: pre;&quot;&gt;&#x9;&lt;/span&gt;nMissing&lt;br&gt;&lt;span style=&quot;white-space: pre;&quot;&gt;&#x9;&lt;/span&gt;propMissing&lt;/font&gt;&lt;br&gt;&lt;/span&gt;&lt;/td&gt;&lt;td&gt;&lt;span style=&quot;background-color: rgb(128, 128, 255);&quot;&gt;&lt;font color=&quot;#ffffff&quot;&gt;TRUE/FALSE if passed the check&lt;br&gt;Dataframe with missingness info&lt;br&gt;&lt;span style=&quot;white-space: pre;&quot;&gt;&#x9;&lt;/span&gt;Variable name&lt;br&gt;&lt;span style=&quot;white-space: pre;&quot;&gt;&#x9;&lt;/span&gt;Number rows&lt;br&gt;&lt;span style=&quot;white-space: pre;&quot;&gt;&#x9;&lt;/span&gt;Number rows missing&lt;br&gt;&lt;span style=&quot;white-space: pre;&quot;&gt;&#x9;&lt;/span&gt;Proportion missing&lt;/font&gt;&lt;br&gt;&lt;/span&gt;&lt;/td&gt;&lt;/tr&gt;&lt;/tbody&gt;&lt;/table&gt;&lt;br&gt;&lt;/div&gt;" style="rounded=0;whiteSpace=wrap;html=1;align=center;" vertex="1" parent="1">
          <mxGeometry x="1140" y="1610" width="490" height="270" as="geometry" />
        </mxCell>
        <mxCell id="GDep3V4h5ndJyahkYe-O-47" value="&lt;div&gt;&lt;b&gt;&lt;font style=&quot;font-size: 18px;&quot;&gt;checkForMonthlyMissingness&lt;/font&gt;&lt;/b&gt;&lt;/div&gt;&lt;div&gt;&lt;br&gt;&lt;/div&gt;&lt;div align=&quot;center&quot;&gt;Input Parameters&lt;/div&gt;&lt;div align=&quot;center&quot;&gt;&lt;table style=&quot;border: 1px solid rgb(0, 0, 0); border-collapse: collapse;&quot; border=&quot;1&quot;&gt;&lt;tbody&gt;&lt;tr&gt;&lt;td&gt;.dsToCheck&lt;br&gt;&lt;/td&gt;&lt;td&gt;Dataframe to run the check on&lt;br&gt;&lt;/td&gt;&lt;/tr&gt;&lt;tr&gt;&lt;td&gt;.compDsToCheck&lt;br&gt;&lt;/td&gt;&lt;td&gt;&lt;br&gt;&lt;/td&gt;&lt;/tr&gt;&lt;tr&gt;&lt;td&gt;.listOfEssentialVars&lt;br&gt;&lt;/td&gt;&lt;td&gt;Character vector of essential variables&lt;br&gt;&lt;/td&gt;&lt;/tr&gt;&lt;/tbody&gt;&lt;/table&gt;&lt;/div&gt;&lt;div&gt;&lt;br&gt;&lt;/div&gt;&lt;div&gt;&lt;br&gt;&lt;/div&gt;&lt;div&gt;Returns&lt;/div&gt;&lt;div&gt;&lt;table style=&quot;border: 1px solid rgb(0, 0, 0); border-collapse: collapse;&quot; border=&quot;1&quot;&gt;&lt;tbody&gt;&lt;tr&gt;&lt;td align=&quot;left&quot;&gt;(list)&lt;br&gt;&lt;/td&gt;&lt;td align=&quot;left&quot;&gt;List containing results of the checks&lt;br&gt;&lt;/td&gt;&lt;td align=&quot;left&quot;&gt;&lt;br&gt;&lt;/td&gt;&lt;/tr&gt;&lt;tr&gt;&lt;td align=&quot;left&quot;&gt;&lt;br&gt;&lt;/td&gt;&lt;td align=&quot;left&quot;&gt;pass&lt;br&gt;essentialVariablesMissingness&lt;br&gt;&lt;span style=&quot;white-space: pre;&quot;&gt;&#x9;&lt;/span&gt;varName&lt;br&gt;&lt;span style=&quot;white-space: pre;&quot;&gt;&#x9;&lt;/span&gt;nRows&lt;br&gt;&lt;span style=&quot;white-space: pre;&quot;&gt;&#x9;&lt;/span&gt;nMissing&lt;br&gt;&lt;span style=&quot;white-space: pre;&quot;&gt;&#x9;&lt;/span&gt;propMissing&lt;br&gt;&lt;span style=&quot;white-space: pre;&quot;&gt;&#x9;&lt;/span&gt;nRowsComp&lt;br&gt;&lt;span style=&quot;white-space: pre;&quot;&gt;&#x9;&lt;/span&gt;nMissingComp&lt;br&gt;&lt;span style=&quot;white-space: pre;&quot;&gt;&#x9;&lt;/span&gt;propMissingComp&lt;br&gt;&lt;/td&gt;&lt;td align=&quot;left&quot;&gt;TRUE/FALSE if passed the check&lt;br&gt;Dataframe with missingness info&lt;br&gt;&lt;span style=&quot;white-space: pre;&quot;&gt;&#x9;&lt;/span&gt;Variable name&lt;br&gt;&lt;span style=&quot;white-space: pre;&quot;&gt;&#x9;&lt;/span&gt;Number rows&lt;br&gt;&lt;span style=&quot;white-space: pre;&quot;&gt;&#x9;&lt;/span&gt;Number rows missing&lt;br&gt;&lt;span style=&quot;white-space: pre;&quot;&gt;&#x9;&lt;/span&gt;Proportion missing&lt;br&gt;&lt;span style=&quot;white-space: pre;&quot;&gt;&#x9;&lt;/span&gt;Number rows comparator&lt;br&gt;&lt;span style=&quot;white-space: pre;&quot;&gt;&#x9;&lt;/span&gt;Number missing comparator&lt;br&gt;&lt;span style=&quot;white-space: pre;&quot;&gt;&#x9;&lt;/span&gt;Proportion missing comparator&lt;br&gt;&lt;/td&gt;&lt;/tr&gt;&lt;/tbody&gt;&lt;/table&gt;&lt;/div&gt;&lt;div&gt;&lt;br&gt;&lt;/div&gt;" style="rounded=0;whiteSpace=wrap;html=1;align=center;" vertex="1" parent="1">
          <mxGeometry x="1140" y="1920" width="490" height="350" as="geometry" />
        </mxCell>
      </root>
    </mxGraphModel>
  </diagram>
</mxfile>
